<svg xmlns="http://www.w3.org/2000/svg" width="15" height="25" viewBox="0 0 15 25"><defs><clipPath id="qamva"><path fill="#fff" d="M0 25V0h15v25zm1.67-12.582l.264.26 11.142 10.865.26-.264L2.194 12.413l10.9-11.108-.266-.259-10.9 11.108z"/></clipPath></defs><g><g opacity="1"><path fill="#4abb90" d="M1.929 12.154l10.9-11.108.264.259L2.194 12.413l11.142 10.866-.26.264L1.935 12.677l-.266-.259z"/><path d="M1.929 12.154l10.9-11.108.264.259L2.194 12.413l11.142 10.866-.26.264L1.935 12.677l-.266-.259z"/><path fill="none" stroke="grey" stroke-linecap="round" stroke-linejoin="round" stroke-miterlimit="20" stroke-width="2" d="M1.929 12.154h0l10.9-11.108.264.259L2.194 12.413l11.142 10.866-.26.264L1.935 12.677h0l-.266-.259z" clip-path="url(&quot;#qamva&quot;)"/></g></g></svg>