<svg xmlns="http://www.w3.org/2000/svg" width="37" height="38" viewBox="0 0 37 38"><defs><clipPath id="jpn5a"><path fill="#fff" d="M18.5 10.664a8.333 8.333 0 1 1-8.333 8.333 8.333 8.333 0 0 1 8.333-8.333z"/></clipPath><clipPath id="jpn5b"><path fill="#fff" d="M18.5 7.33c6.443 0 11.667 5.224 11.667 11.667S24.943 30.663 18.5 30.663 6.833 25.44 6.833 18.997c0-6.443 5.224-11.666 11.667-11.666z"/></clipPath><clipPath id="jpn5c"><path fill="#fff" d="M18.5 3.998c8.284 0 15 6.715 15 14.999s-6.716 15-15 15c-8.284-.001-15-6.716-15-15 0-8.284 6.716-15 15-15z"/></clipPath><clipPath id="jpn5d"><path fill="#fff" d="M18.5.665c10.125 0 18.333 8.207 18.333 18.332S28.625 37.329 18.5 37.329C8.375 37.33.167 29.122.167 18.997S8.375.665 18.5.665z"/></clipPath></defs><g><g><path fill="#fff" d="M18.5 13.997a5 5 0 1 1 0 10 5 5 0 0 1 0-10z"/></g><g><path fill="none" stroke="#fff" stroke-miterlimit="20" stroke-width="4" d="M18.5 10.664a8.333 8.333 0 1 1-8.333 8.333 8.333 8.333 0 0 1 8.333-8.333z" clip-path="url(&quot;#jpn5a&quot;)"/></g><g><path fill="none" stroke="#fff" stroke-miterlimit="20" stroke-width="4" d="M18.5 7.33c6.443 0 11.667 5.224 11.667 11.667S24.943 30.663 18.5 30.663 6.833 25.44 6.833 18.997c0-6.443 5.224-11.666 11.667-11.666z" clip-path="url(&quot;#jpn5b&quot;)"/></g><g><path fill="none" stroke="#fff" stroke-miterlimit="20" stroke-width="4" d="M18.5 3.998c8.284 0 15 6.715 15 14.999s-6.716 15-15 15c-8.284-.001-15-6.716-15-15 0-8.284 6.716-15 15-15z" clip-path="url(&quot;#jpn5c&quot;)"/></g><g><path fill="none" stroke="#fff" stroke-miterlimit="20" stroke-width="4" d="M18.5.665c10.125 0 18.333 8.207 18.333 18.332S28.625 37.329 18.5 37.329C8.375 37.33.167 29.122.167 18.997S8.375.665 18.5.665z" clip-path="url(&quot;#jpn5d&quot;)"/></g></g></svg>