<svg xmlns="http://www.w3.org/2000/svg" width="15" height="25" viewBox="0 0 15 25"><defs><clipPath id="pvt3a"><path fill="#fff" d="M0 25V0h15v25zm1.836-12.656l.265.258L13.243 23.47l.26-.265L2.36 12.338 13.26 1.23l-.266-.258-10.9 11.107z"/></clipPath></defs><g><g><path fill="#4abb90" d="M2.095 12.08L12.995.971l.265.258-10.9 11.108 11.142 10.866-.26.265-11.14-10.867-.266-.258z"/><path fill="#fff" d="M2.095 12.08L12.995.971l.265.258-10.9 11.108 11.142 10.866-.26.265-11.14-10.867-.266-.258z"/><path fill="none" stroke="#fff" stroke-linecap="round" stroke-linejoin="round" stroke-miterlimit="20" stroke-width="2" d="M2.095 12.08h0L12.995.971l.265.258-10.9 11.108 11.142 10.866-.26.265-11.14-10.867h0l-.266-.258z" clip-path="url(&quot;#pvt3a&quot;)"/></g></g></svg>